<?xml version="1.0" encoding="UTF-8" standalone="no"?>
<!DOCTYPE svg PUBLIC "-//W3C//DTD SVG 1.1//EN"
 "http://www.w3.org/Graphics/SVG/1.1/DTD/svg11.dtd">
<!-- Generated by graphviz version 12.2.1 (0)
 -->
<!-- Title: Architecture Pages: 1 -->
<svg width="1227pt" height="343pt"
 viewBox="0.00 0.00 1226.50 343.25" xmlns="http://www.w3.org/2000/svg" xmlns:xlink="http://www.w3.org/1999/xlink">
<g id="graph0" class="graph" transform="scale(1 1) rotate(0) translate(4 339.25)">
<title>Architecture</title>
<polygon fill="white" stroke="none" points="-4,4 -4,-339.25 1222.5,-339.25 1222.5,4 -4,4"/>
<g id="clust1" class="cluster">
<title>cluster_defectdojo</title>
<polygon fill="none" stroke="blue" points="472.25,-50.25 472.25,-327.25 1210.5,-327.25 1210.5,-50.25 472.25,-50.25"/>
<text text-anchor="middle" x="841.38" y="-309.95" font-family="Times,serif" font-size="14.00">DefectDojo Stack</text>
</g>
<!-- dd_postgres -->
<g id="node1" class="node">
<title>dd_postgres</title>
<polygon fill="lightblue" stroke="black" points="1202.5,-137.5 1089,-137.5 1089,-95 1202.5,-95 1202.5,-137.5"/>
<text text-anchor="middle" x="1145.75" y="-120.2" font-family="Times,serif" font-size="14.00">PostgreSQL</text>
<text text-anchor="middle" x="1145.75" y="-102.95" font-family="Times,serif" font-size="14.00">(dd_postgres)</text>
</g>
<!-- dd_valkey -->
<g id="node2" class="node">
<title>dd_valkey</title>
<polygon fill="lightblue" stroke="black" points="1199.12,-217.5 1092.38,-217.5 1092.38,-175 1199.12,-175 1199.12,-217.5"/>
<text text-anchor="middle" x="1145.75" y="-200.2" font-family="Times,serif" font-size="14.00">Valkey/Redis</text>
<text text-anchor="middle" x="1145.75" y="-182.95" font-family="Times,serif" font-size="14.00">(dd_valkey)</text>
</g>
<!-- dd_uwsgi -->
<g id="node3" class="node">
<title>dd_uwsgi</title>
<polygon fill="lightgreen" stroke="black" points="980.25,-257.5 798.5,-257.5 798.5,-215 980.25,-215 980.25,-257.5"/>
<text text-anchor="middle" x="889.38" y="-240.2" font-family="Times,serif" font-size="14.00">DefectDojo Django App</text>
<text text-anchor="middle" x="889.38" y="-222.95" font-family="Times,serif" font-size="14.00">(dd_uwsgi)</text>
</g>
<!-- dd_uwsgi&#45;&gt;dd_postgres -->
<g id="edge1" class="edge">
<title>dd_uwsgi&#45;&gt;dd_postgres</title>
<path fill="none" stroke="black" d="M980.3,-230.41C1018.01,-226.34 1056.46,-219.53 1071,-208.25 1087.05,-195.8 1077.16,-182.75 1089,-166.25 1094.28,-158.9 1100.8,-151.85 1107.51,-145.48"/>
<polygon fill="black" stroke="black" points="1109.82,-148.11 1114.91,-138.81 1105.13,-142.91 1109.82,-148.11"/>
<text text-anchor="middle" x="1034.62" y="-232.17" font-family="Times,serif" font-size="14.00">DB access</text>
</g>
<!-- dd_uwsgi&#45;&gt;dd_valkey -->
<g id="edge2" class="edge">
<title>dd_uwsgi&#45;&gt;dd_valkey</title>
<path fill="none" stroke="black" d="M966.32,-257.97C999.25,-263.81 1037.79,-265.74 1071,-254.25 1088.01,-248.36 1104.08,-236.75 1116.84,-225.45"/>
<polygon fill="black" stroke="black" points="1119.07,-228.16 1124.02,-218.79 1114.31,-223.03 1119.07,-228.16"/>
<text text-anchor="middle" x="1034.62" y="-266.57" font-family="Times,serif" font-size="14.00">Broker</text>
</g>
<!-- dd_celerybeat -->
<g id="node4" class="node">
<title>dd_celerybeat</title>
<polygon fill="lightgreen" stroke="black" points="952.5,-109.5 826.25,-109.5 826.25,-67 952.5,-67 952.5,-109.5"/>
<text text-anchor="middle" x="889.38" y="-92.2" font-family="Times,serif" font-size="14.00">Celery Beat</text>
<text text-anchor="middle" x="889.38" y="-74.95" font-family="Times,serif" font-size="14.00">(dd_celerybeat)</text>
</g>
<!-- dd_celerybeat&#45;&gt;dd_postgres -->
<g id="edge3" class="edge">
<title>dd_celerybeat&#45;&gt;dd_postgres</title>
<path fill="none" stroke="black" d="M952.67,-75.14C987.88,-70.01 1032.44,-67.38 1071,-77 1081.65,-79.66 1092.46,-84.18 1102.39,-89.22"/>
<polygon fill="black" stroke="black" points="1100.58,-92.23 1111.05,-93.9 1103.91,-86.07 1100.58,-92.23"/>
<text text-anchor="middle" x="1034.62" y="-80.95" font-family="Times,serif" font-size="14.00">DB access</text>
</g>
<!-- dd_celerybeat&#45;&gt;dd_valkey -->
<g id="edge4" class="edge">
<title>dd_celerybeat&#45;&gt;dd_valkey</title>
<path fill="none" stroke="black" d="M938.61,-109.88C957.11,-117.9 978.52,-126.84 998.25,-134.25 1030.09,-146.21 1039.63,-144.85 1071,-158 1079.14,-161.41 1087.6,-165.38 1095.76,-169.44"/>
<polygon fill="black" stroke="black" points="1094.05,-172.49 1104.54,-173.91 1097.22,-166.25 1094.05,-172.49"/>
<text text-anchor="middle" x="1034.62" y="-161.95" font-family="Times,serif" font-size="14.00">Broker</text>
</g>
<!-- dd_celeryworker -->
<g id="node5" class="node">
<title>dd_celeryworker</title>
<polygon fill="lightgreen" stroke="black" points="961.88,-187.5 816.88,-187.5 816.88,-145 961.88,-145 961.88,-187.5"/>
<text text-anchor="middle" x="889.38" y="-170.2" font-family="Times,serif" font-size="14.00">Celery Worker</text>
<text text-anchor="middle" x="889.38" y="-152.95" font-family="Times,serif" font-size="14.00">(dd_celeryworker)</text>
</g>
<!-- dd_celeryworker&#45;&gt;dd_postgres -->
<g id="edge5" class="edge">
<title>dd_celeryworker&#45;&gt;dd_postgres</title>
<path fill="none" stroke="black" d="M927.45,-144.59C947.65,-134.03 973.52,-122.44 998.25,-117 1023.78,-111.38 1052.41,-110.15 1077.55,-110.69"/>
<polygon fill="black" stroke="black" points="1077.21,-114.18 1087.32,-111.01 1077.44,-107.19 1077.21,-114.18"/>
<text text-anchor="middle" x="1034.62" y="-120.95" font-family="Times,serif" font-size="14.00">DB access</text>
</g>
<!-- dd_celeryworker&#45;&gt;dd_valkey -->
<g id="edge6" class="edge">
<title>dd_celeryworker&#45;&gt;dd_valkey</title>
<path fill="none" stroke="black" d="M962.25,-174.73C999.5,-179.12 1044.62,-184.44 1080.67,-188.69"/>
<polygon fill="black" stroke="black" points="1080.19,-192.16 1090.53,-189.86 1081.01,-185.21 1080.19,-192.16"/>
<text text-anchor="middle" x="1034.62" y="-191.34" font-family="Times,serif" font-size="14.00">Broker</text>
</g>
<!-- dd_nginx -->
<g id="node6" class="node">
<title>dd_nginx</title>
<polygon fill="lightpink" stroke="black" points="622.25,-180.5 480.25,-180.5 480.25,-138 622.25,-138 622.25,-180.5"/>
<text text-anchor="middle" x="551.25" y="-163.2" font-family="Times,serif" font-size="14.00">DefectDojo Nginx</text>
<text text-anchor="middle" x="551.25" y="-145.95" font-family="Times,serif" font-size="14.00">(dd_nginx)</text>
</g>
<!-- dd_nginx&#45;&gt;dd_uwsgi -->
<g id="edge7" class="edge">
<title>dd_nginx&#45;&gt;dd_uwsgi</title>
<path fill="none" stroke="black" d="M622.71,-175.39C670.34,-186.3 733.97,-200.88 787.01,-213.03"/>
<polygon fill="black" stroke="black" points="786.16,-216.42 796.69,-215.25 787.72,-209.6 786.16,-216.42"/>
<text text-anchor="middle" x="710.38" y="-215.29" font-family="Times,serif" font-size="14.00">HTTP/HTTPS proxy</text>
</g>
<!-- pfe_ai_service -->
<g id="node7" class="node">
<title>pfe_ai_service</title>
<polygon fill="gold" stroke="black" points="614.38,-42.5 488.12,-42.5 488.12,0 614.38,0 614.38,-42.5"/>
<text text-anchor="middle" x="551.25" y="-25.2" font-family="Times,serif" font-size="14.00">AI Service</text>
<text text-anchor="middle" x="551.25" y="-7.95" font-family="Times,serif" font-size="14.00">(pfe_ai_service)</text>
</g>
<!-- pfe_dashboard -->
<g id="node8" class="node">
<title>pfe_dashboard</title>
<polygon fill="orange" stroke="black" points="138.25,-62.5 0,-62.5 0,-20 138.25,-20 138.25,-62.5"/>
<text text-anchor="middle" x="69.12" y="-45.2" font-family="Times,serif" font-size="14.00">React Dashboard</text>
<text text-anchor="middle" x="69.12" y="-27.95" font-family="Times,serif" font-size="14.00">(pfe_dashboard)</text>
</g>
<!-- pfe_dashboard&#45;&gt;dd_nginx -->
<g id="edge8" class="edge">
<title>pfe_dashboard&#45;&gt;dd_nginx</title>
<path fill="none" stroke="black" d="M138.66,-58.09C225.8,-79.51 376.06,-116.44 468.91,-139.26"/>
<polygon fill="black" stroke="black" points="467.93,-142.62 478.47,-141.61 469.6,-135.82 467.93,-142.62"/>
<text text-anchor="middle" x="309.25" y="-140.63" font-family="Times,serif" font-size="14.00">DefectDojo API (http://localhost:8080)</text>
</g>
<!-- pfe_dashboard&#45;&gt;pfe_ai_service -->
<g id="edge9" class="edge">
<title>pfe_dashboard&#45;&gt;pfe_ai_service</title>
<path fill="none" stroke="black" d="M138.72,-33.38C144.64,-32.86 150.55,-32.38 156.25,-32 267.69,-24.51 397.19,-22.2 476.42,-21.51"/>
<polygon fill="black" stroke="black" points="476.25,-25.01 486.23,-21.43 476.2,-18.01 476.25,-25.01"/>
<text text-anchor="middle" x="309.25" y="-35.95" font-family="Times,serif" font-size="14.00">AI Prioritization API (http://localhost:8001)</text>
</g>
</g>
</svg>
